<?xml version="1.0" encoding="UTF-8"?>

<svg width="540" height="540" version="1.1" viewBox="0 0 142.88 142.88" xml:space="preserve"
  xmlns="http://www.w3.org/2000/svg">
  <style>
    .choice {
      cursor: pointer;
    }
  </style>
  
  <defs>
    <marker id="marker-âœ‚ï¸-ðŸ“„" overflow="visible" markerHeight="6" markerWidth="5" orient="auto-start-reverse">
      <path d="m1 0-3 3h-2l3-3-3-3h2z" fill="green"/>
    </marker>
    <marker id="marker-ðŸ—¿-âœ‚ï¸" overflow="visible" markerHeight="6" markerWidth="5" orient="auto-start-reverse">
      <path d="m1 0-3 3h-2l3-3-3-3h2z" fill="green"/>
    </marker>
    <marker id="marker-ðŸ“„-ðŸ—¿" overflow="visible" markerHeight="6" markerWidth="5" orient="auto-start-reverse" >
      <path d="m1 0-3 3h-2l3-3-3-3h2z" fill="green"/>
    </marker>
  </defs>
  <g transform="translate(-10.91 0)">

    <path id="âœ‚ï¸-ðŸ“„" class="arrow" d="m45 123 80 0" marker-end="url(#marker-âœ‚ï¸-ðŸ“„)" stroke="green" stroke-width="1.25"/>
    <path id="ðŸ—¿-âœ‚ï¸" class="arrow" d="m70 65 -40 40" marker-end="url(#marker-ðŸ—¿-âœ‚ï¸)" stroke="green" stroke-width="1.25"/>
    <path id="ðŸ“„-ðŸ—¿" class="arrow" d="m140 105 -40 -40" marker-end="url(#marker-ðŸ“„-ðŸ—¿)" stroke="green" stroke-width="1.25"/>


    <g id="âœ‚ï¸" class="choice" transform="matrix(0.67 0 0 0.67 15 112)">
        <path class="scissors-path" fill="#DD2E44" d="M16.806 10.675c-.92-2.047-2.003-4.066-3.026-6.26-.028-.068-.051-.138-.082-.206-.064-.142-.137-.277-.208-.413l-.052-.111-.002.003C11.798.698 8.343-.674 5.46.621 2.414 1.988 1.164 5.813 2.67 9.163c1.505 3.351 5.194 4.957 8.24 3.589.106-.047.205-.105.306-.159 1.935.438 1.994 1.877 1.994 1.877s4.618-1.521 3.596-3.795M4.876 8.173c-.958-2.133-.252-4.527 1.575-5.347 1.826-.822 4.084.242 5.042 2.374s.253 4.526-1.573 5.346c-1.828.821-4.087-.241-5.044-2.373"/>
        <path class="scissors-path" fill="#99AAB5" d="M26.978 34.868c1.163-.657 2.187-2.474 1.529-3.638L16.754 10.559c-1.103.496-2.938 2.313-3.544 3.912z"/>
        <path class="scissors-path" fill="#DD2E44" d="M30.54.62c-2.882-1.295-6.338.077-7.976 3.067l-.003-.003-.053.112c-.071.135-.145.27-.208.412-.03.068-.053.137-.081.206-1.023 2.194-2.107 4.213-3.026 6.26-1.021 2.274 3.597 3.796 3.597 3.796s.059-1.439 1.993-1.877c.102.054.2.111.307.159 3.045 1.368 6.733-.238 8.24-3.589 1.505-3.35.255-7.175-2.79-8.543m.584 7.553c-.959 2.132-3.216 3.194-5.044 2.373-1.826-.82-2.531-3.214-1.572-5.346.956-2.132 3.214-3.195 5.041-2.374s2.532 3.214 1.575 5.347"/>
        <path class="scissors-path" fill="#99AAB5" d="M19.562 17.396a1.563 1.563 0 1 1-3.126-.002 1.563 1.563 0 0 1 3.126.002"/>
        <path class="scissors-path" fill="#CCD6DD" d="M9.022 34.868c-1.163-.657-2.187-2.474-1.529-3.638l11.753-20.671c1.103.496 2.938 2.313 3.544 3.912z"/>
    </g>


    <g id="ðŸ—¿" class="choice" transform="matrix(0.68 0 0 0.68 69 40)">
      <path fill="#e0e0e0" d="M32.22 43H15.75a1.53 1.53 0 0 1-1.61-1.86L17 31.31h9.29a6.66 6.66 0 0 1 6.79 5.24l.77 4.75a1.56 1.56 0 0 1-1.63 1.7"/>
      <path fill="#bdbec0" d="M26.31 31.31H17l-1.53 5.29c3.21.43 7.89.52 10.87-.6a34 34 0 0 0 5.38-2.33a7.2 7.2 0 0 0-5.41-2.36"/>
      <path fill="none" stroke="#45413c" stroke-linecap="round" stroke-linejoin="round" d="M32.22 43H15.75a1.53 1.53 0 0 1-1.61-1.86L17 31.31h9.29a6.66 6.66 0 0 1 6.79 5.24l.77 4.75a1.56 1.56 0 0 1-1.63 1.7"/>
      <path fill="#bdbec0" d="M12.28 33.29c2.09 1.11 9 2.17 12.79 0s5.4-3.31 5.49-4s1.39-14 2.35-18.89S32.3 3.43 29 3a10.47 10.47 0 0 0-7.75 2.35a40 40 0 0 0-4.09 4.44c-.87 1.31.26 3.92.26 3.92s-3.57 9.49-4.35 13.14s-1.62 5.99-.79 6.44"/>
      <path fill="#87898c" d="M29 3a10.47 10.47 0 0 0-7.75 2.35a40 40 0 0 0-4.09 4.44c-.73 1.1 0 3.1.18 3.72a18.4 18.4 0 0 1 8.43-1.3a22.4 22.4 0 0 1 6.52 2.16c.21-1.56.43-2.95.63-4C33.86 5.52 32.3 3.43 29 3"/>
      <path fill="#e0e0e0" d="M29 3a10.47 10.47 0 0 0-7.75 2.35a40 40 0 0 0-4.09 4.44c1.31-1.56 7.4-2.44 8.79-2s2.27 3.57 2.27 3.57s-2.44 7.75-4.68 13.32s-4.2 9.86-5.68 9.84a13.63 13.63 0 0 0 7.22-1.22c3.83-2.18 5.4-3.31 5.49-4s1.39-14 2.35-18.89S32.3 3.43 29 3"/>
      <path fill="#fff" d="M29 5.8c2.25.3 3.69 1.36 4.09 3.55c.54-4.13-1-6-4.09-6.36a10.47 10.47 0 0 0-7.75 2.35a40 40 0 0 0-4.09 4.44c.63-.76 2.39-1.35 4.19-1.71A10.44 10.44 0 0 1 29 5.8"/>
      <path fill="#45413c" d="M11.99 44.43a12.01 1.57 0 1 0 24.02 0a12.01 1.57 0 1 0-24.02 0" opacity=".15"/>
      <path fill="none" stroke="#45413c" stroke-linecap="round" stroke-linejoin="round" d="M12.28 33.29c2.09 1.11 9 2.17 12.79 0s5.4-3.31 5.49-4s1.39-14 2.35-18.89S32.3 3.43 29 3a10.47 10.47 0 0 0-7.75 2.35a40 40 0 0 0-4.09 4.44c-.87 1.31.26 3.92.26 3.92s-3.57 9.49-4.35 13.14s-1.62 5.99-.79 6.44"/>
      <path fill="none" stroke="#45413c" stroke-linecap="round" stroke-linejoin="round" d="M29 3a10.47 10.47 0 0 0-7.75 2.35a40 40 0 0 0-4.09 4.44c1.31-1.56 7.4-2.44 8.79-2s2.27 3.57 2.27 3.57s-2.44 7.75-4.68 13.32s-4.2 9.86-5.68 9.84a13.63 13.63 0 0 0 7.22-1.22c3.83-2.18 5.4-3.31 5.49-4s1.39-14 2.35-18.89S32.3 3.43 29 3"/>
      <path fill="#e0e0e0" d="M20 9.78s-5.13 6-6.52 8s-1.65 2.87-1.57 3.92S14 23.37 14 23.37s5.38-.62 6-1.4s3.51-9.84 3.51-9.84A2.78 2.78 0 0 0 20 9.78"/>
      <path fill="#87898c" d="M18.58 20.88c-2.16-.69-5.71-1.15-6.53-.43a3.4 3.4 0 0 0-.12 1.26c.09 1 2.1 1.66 2.1 1.66s5.38-.62 6-1.4l.11-.18a4.1 4.1 0 0 0-1.56-.91"/>
      <path fill="none" stroke="#45413c" stroke-linecap="round" stroke-linejoin="round" d="M20 9.78s-5.13 6-6.52 8s-1.65 2.87-1.57 3.92S14 23.37 14 23.37s5.38-.62 6-1.4s3.51-9.84 3.51-9.84A2.78 2.78 0 0 0 20 9.78"/>
      <path fill="#e0e0e0" d="M32.7 5.34S27.34 20.05 28 22.23a5.06 5.06 0 0 0 3 3s1.17 0 1.72-2.76s2.54-13.82 1.93-15.82s-1.95-1.31-1.95-1.31"/>
      <path fill="#f0f0f0" d="M33.27 9.7c.49.77.63 3.26.61 6.08c.61-3.85 1.12-8 .77-9.13c-.61-2-1.95-1.31-1.95-1.31s-.48 1.34-1.15 3.26a2 2 0 0 1 1.72 1.1"/>
      <path fill="none" stroke="#45413c" stroke-linecap="round" stroke-linejoin="round" d="M32.7 5.34S27.34 20.05 28 22.23a5.06 5.06 0 0 0 3 3s1.17 0 1.72-2.76s2.54-13.82 1.93-15.82s-1.95-1.31-1.95-1.31M12.87 27.7s4.4-.37 5.7 0"/>
    </g>


    <g id="ðŸ“„" class="choice" transform="matrix(0.36 0 0 0.36 130 112)">
      <path fill="#d0d1d2" d="M57.792 58.54c0 3.02-2.697 5.46-6.03 5.46H13.29c-3.33 0-6.03-2.441-6.03-5.46V9.31c0-3.01 2.703-5.462 6.03-5.462h38.472c3.335 0 6.03 2.448 6.03 5.462z"/>
      <path fill="#e7e6e6" d="M57.792 54.688c0 3.02-2.697 5.463-6.03 5.463H13.29c-3.33 0-6.03-2.445-6.03-5.463V5.458c0-3.01 2.703-5.459 6.03-5.459h38.472c3.335 0 6.03 2.446 6.03 5.459z"/>
      <path fill="#35494d" d="M14.863 13.232h34.23c2.301 0 2.301-3.228 0-3.228h-34.23c-2.298 0-2.298 3.228 0 3.228m0 6.551h34.23c2.301 0 2.301-3.224 0-3.224h-34.23c-2.298 0-2.298 3.224 0 3.224m0 6.699h34.23c2.301 0 2.301-3.224 0-3.224h-34.23c-2.298 0-2.298 3.224 0 3.224m0 6.548h34.23c2.301 0 2.301-3.227 0-3.227h-34.23c-2.298 0-2.298 3.227 0 3.227m0 23.697h15.75c2.301 0 2.301-3.229 0-3.229h-15.75c-2.298 0-2.298 3.229 0 3.229"/>
    </g>

  </g>
</svg>