<?xml version="1.0" encoding="UTF-8"?>

<svg width="540" height="540" version="1.1" viewBox="0 0 142.88 142.88" xml:space="preserve"
  xmlns="http://www.w3.org/2000/svg">
  <style>
    .choice {
      cursor: pointer;
    }
  </style>
  
  <defs>
    <marker id="marker-âœ‚ï¸-ðŸ“„" overflow="visible" markerHeight="6" markerWidth="5" orient="auto-start-reverse">
      <path d="m1 0-3 3h-2l3-3-3-3h2z" fill="green"/>
    </marker>
    <marker id="marker-ðŸ—¿-âœ‚ï¸" overflow="visible" markerHeight="6" markerWidth="5" orient="auto-start-reverse">
      <path d="m1 0-3 3h-2l3-3-3-3h2z" fill="green"/>
    </marker>
    <marker id="marker-ðŸ“„-ðŸ—¿" overflow="visible" markerHeight="6" markerWidth="5" orient="auto-start-reverse" >
      <path d="m1 0-3 3h-2l3-3-3-3h2z" fill="green"/>
    </marker>
  </defs>

  <g transform="translate(-13.91 -10)">

    <path id="âœ‚ï¸-ðŸ“„" class="arrow" d="m45 123 80 0" marker-end="url(#marker-âœ‚ï¸-ðŸ“„)" stroke="green" stroke-width="1.25"/>
    <path id="ðŸ—¿-âœ‚ï¸" class="arrow" d="m70 65 -40 40" marker-end="url(#marker-ðŸ—¿-âœ‚ï¸)" stroke="green" stroke-width="1.25"/>
    <path id="ðŸ“„-ðŸ—¿" class="arrow" d="m140 105 -40 -40" marker-end="url(#marker-ðŸ“„-ðŸ—¿)" stroke="green" stroke-width="1.25"/>


    <g id="âœ‚ï¸" class="choice" transform="matrix(0.67 0 0 0.67 15 112)">
        <path fill="#DD2E44" d="M16.806 10.675c-.92-2.047-2.003-4.066-3.026-6.26-.028-.068-.051-.138-.082-.206-.064-.142-.137-.277-.208-.413l-.052-.111-.002.003C11.798.698 8.343-.674 5.46.621 2.414 1.988 1.164 5.813 2.67 9.163c1.505 3.351 5.194 4.957 8.24 3.589.106-.047.205-.105.306-.159 1.935.438 1.994 1.877 1.994 1.877s4.618-1.521 3.596-3.795M4.876 8.173c-.958-2.133-.252-4.527 1.575-5.347 1.826-.822 4.084.242 5.042 2.374s.253 4.526-1.573 5.346c-1.828.821-4.087-.241-5.044-2.373"/>
        <path fill="#99AAB5" d="M26.978 34.868c1.163-.657 2.187-2.474 1.529-3.638L16.754 10.559c-1.103.496-2.938 2.313-3.544 3.912z"/>
        <path fill="#DD2E44" d="M30.54.62c-2.882-1.295-6.338.077-7.976 3.067l-.003-.003-.053.112c-.071.135-.145.27-.208.412-.03.068-.053.137-.081.206-1.023 2.194-2.107 4.213-3.026 6.26-1.021 2.274 3.597 3.796 3.597 3.796s.059-1.439 1.993-1.877c.102.054.2.111.307.159 3.045 1.368 6.733-.238 8.24-3.589 1.505-3.35.255-7.175-2.79-8.543m.584 7.553c-.959 2.132-3.216 3.194-5.044 2.373-1.826-.82-2.531-3.214-1.572-5.346.956-2.132 3.214-3.195 5.041-2.374s2.532 3.214 1.575 5.347"/>
        <path fill="#99AAB5" d="M19.562 17.396a1.563 1.563 0 1 1-3.126-.002 1.563 1.563 0 0 1 3.126.002"/>
        <path fill="#CCD6DD" d="M9.022 34.868c-1.163-.657-2.187-2.474-1.529-3.638l11.753-20.671c1.103.496 2.938 2.313 3.544 3.912z"/>
    </g>


    <g id="ðŸ—¿" class="choice" transform="matrix(0.68 0 0 0.68 72 40)">
      <path fill="#66757F" d="M8 27s-2 4-2 6 4 3 12 3 12-1 12-3-2-6-2-6H8zM9 6C6 6 6 7 5 16c-.994 8.945 0 10 4 10 2 0 2-20 0-20zm18 0c3 0 3 1 4 10 .994 8.945 0 10-4 10-2 0-2-20 0-20z"/>
      <path fill="#CCD6DD" d="M8 3s1-3 10-3 10 3 10 3 1 6 1 14-1 14-1 14-1 2-10 2-10-2-10-2-1-3-1-14S8 3 8 3z"/>
      <path fill="#66757F" d="M28 8c0-1-3-4-10-4S8 7 8 8c0 .807 4.548 1.612 6.311 1.894C14.999 12.548 15 18 15 18c.805-3.218.315-7.079.093-8.467C15.295 8.942 15.941 8 18 8c3 0 3 2 3 2h.002c-.234 1.657-.566 5.089.162 8 0 0 .002-5.491.697-8.134C23.727 9.562 28 8.782 28 8z"/>
      <path fill="#66757F" d="M14 20c0-1 2-3 4-3s4 2 4 3-1 1-4 1-4 0-4-1zm-2 4s2-2 6-2 6 2 6 2-2-1-6-1-6 1-6 1zm0 2c0-1 2-2 6-2s6 1 6 2-1 1-6 1-6 0-6-1z"/>
    </g>


    <g id="ðŸ“„" class="choice" transform="matrix(0.36 0 0 0.36 130 112)">
      <path fill="#d0d1d2" d="M57.792 58.54c0 3.02-2.697 5.46-6.03 5.46H13.29c-3.33 0-6.03-2.441-6.03-5.46V9.31c0-3.01 2.703-5.462 6.03-5.462h38.472c3.335 0 6.03 2.448 6.03 5.462z"/>
      <path fill="#e7e6e6" d="M57.792 54.688c0 3.02-2.697 5.463-6.03 5.463H13.29c-3.33 0-6.03-2.445-6.03-5.463V5.458c0-3.01 2.703-5.459 6.03-5.459h38.472c3.335 0 6.03 2.446 6.03 5.459z"/>
      <path fill="#35494d" d="M14.863 13.232h34.23c2.301 0 2.301-3.228 0-3.228h-34.23c-2.298 0-2.298 3.228 0 3.228m0 6.551h34.23c2.301 0 2.301-3.224 0-3.224h-34.23c-2.298 0-2.298 3.224 0 3.224m0 6.699h34.23c2.301 0 2.301-3.224 0-3.224h-34.23c-2.298 0-2.298 3.224 0 3.224m0 6.548h34.23c2.301 0 2.301-3.227 0-3.227h-34.23c-2.298 0-2.298 3.227 0 3.227m0 23.697h15.75c2.301 0 2.301-3.229 0-3.229h-15.75c-2.298 0-2.298 3.229 0 3.229"/>
    </g>

  </g>
</svg>