<?xml version="1.0" encoding="UTF-8"?>
<svg width="540" height="540" version="1.1" viewBox="0 0 142.88 142.88" xml:space="preserve"
  xmlns="http://www.w3.org/2000/svg">
  <style>
    .choice {
      cursor: pointer;
    }
  </style>
  
  <defs>
    <marker id="m-✂-📄" overflow="visible" markerHeight="6" markerWidth="5" orient="auto-start-reverse">
      <path d="m1 0-3 3h-2l3-3-3-3h2z" fill="green"/>
    </marker>
    <marker id="m-🗿-✂" overflow="visible" markerHeight="6" markerWidth="5" orient="auto-start-reverse">
      <path d="m1 0-3 3h-2l3-3-3-3h2z" fill="green"/>
    </marker>
    <marker id="m-📄-🗿" overflow="visible" markerHeight="6" markerWidth="5" orient="auto-start-reverse" >
      <path d="m1 0-3 3h-2l3-3-3-3h2z" fill="green"/>
    </marker>
  </defs>
  <g transform="translate(-10.91 0)">

    <path id="✂-📄" class="arrow" d="m45 123 80 0" marker-end="url(#m-✂-📄)" stroke="green" stroke-width="1.25"/>
    <path id="🗿-✂" class="arrow" d="m70 65 -40 40" marker-end="url(#m-🗿-✂)" stroke="green" stroke-width="1.25"/>
    <path id="📄-🗿" class="arrow" d="m140 105 -40 -40" marker-end="url(#m-📄-🗿)" stroke="green" stroke-width="1.25"/>

    <g id="🗿" class="choice" transform="matrix(.088278 0 0 .088271 75 60)">
      <path class="border" d="m63.5 53.875c-3.1667 0-6.1042-0.5833-8.8125-1.75s-5.0833-2.7708-7.125-4.8125-3.6458-4.4167-4.8125-7.125-1.75-5.6458-1.75-8.8125v-13.125c0-4.25 0.6667-8.4167 2-12.5s3.25-7.875 5.75-11.375c-0.4167-0.08333-0.7083-0.25-0.875-0.5-2.9167-2.1667-5.3958-4.3958-7.4375-6.6875s-3.6875-4.75-4.9375-7.375-2.1458-5.4375-2.6875-8.4375-0.8125-6.3333-0.8125-10c0-4.25 0.7708-8.3333 2.3125-12.25s3.7708-7.4167 6.6875-10.5v-21c-2.25-2.0833-3.9792-4.125-5.1875-6.125s-2.0833-4.0625-2.625-6.1875-0.875-4.375-1-6.7505c-0.125-2.374-0.1875-5.02-0.1875-7.937 0-9.917 3.5-18.375 10.5-25.375l25.375-25.5v-26.875l36-36c2.333-2.333 4.729-4.208 7.188-5.625 2.458-1.417 4.979-2.5 7.562-3.25s5.229-1.25 7.938-1.5c2.708-0.25 5.52-0.375 8.437-0.375 2.167 0 4.396 0.042 6.688 0.125 2.291 0.083 4.645 0.125 7.062 0.125 5 0 9.833 0.479 14.5 1.437 4.667 0.959 9.417 1.938 14.25 2.938 1.667 0.333 3.333 0.542 5 0.625s3.333 0.125 5 0.125h6c2.667 1.75 5.125 3.604 7.375 5.562 2.25 1.959 4.188 4.105 5.813 6.438s2.875 4.875 3.75 7.625 1.312 5.833 1.312 9.25c0 1.5-0.125 3-0.375 4.5l-16.75 113.62c-0.583 3.75-1.708 7.0833-3.375 10s-4.042 5.4583-7.125 7.625c-0.917 5.1667-2.875 9.8333-5.875 14l19 19c2.917 2.9167 5.313 5.8542 7.188 8.8125s3.333 6.0417 4.375 9.25c1.041 3.2083 1.77 6.5833 2.187 10.125 0.417 3.5417 0.625 7.3125 0.625 11.312 0 4.25-0.521 8.0625-1.562 11.438-1.042 3.375-2.48 6.5417-4.313 9.5s-4 5.75-6.5 8.375-5.208 5.3125-8.125 8.0625c-2.667 2.5833-5.583 4.5417-8.75 5.875s-6.625 2-10.375 2z"/>
      <path d="m144-49c0.5 1.3333 1.333 3.4792 2.5 6.4375s2.521 6.4375 4.063 10.438c1.541 4 3.229 8.375 5.062 13.125s3.667 9.5208 5.5 14.312c1.833 4.7917 3.583 9.4583 5.25 14 1.667 4.5417 3.146 8.625 4.438 12.25 1.291 3.625 2.333 6.6458 3.125 9.0625 0.791 2.4167 1.187 3.9167 1.187 4.5 0 0.4167-0.271 0.6458-0.812 0.6875-0.542 0.0417-0.938 0.0625-1.188 0.0625h-109.62c-1.25 0-2.3125-0.4375-3.1875-1.3125s-1.3125-1.9375-1.3125-3.1875v-13.125c0-3.6667 0.5833-6.6875 1.75-9.0625s2.6458-4.4792 4.4375-6.3125 3.7292-3.6458 5.8125-5.4375c2.0833-1.7917 4.0417-3.9375 5.875-6.4375 1.9167-2.5833 3.5-5.3333 4.75-8.25s2.6667-5.75 4.25-8.5c-2 0-4.7292-0.2708-8.1875-0.8125s-7-1.2917-10.625-2.25-7.0208-2.0417-10.188-3.25-5.4583-2.5208-6.875-3.9375c0-3.5 0.4583-6.25 1.375-8.25s1.9375-3.75 3.0625-5.25 2.1667-3.0208 3.125-4.5625 1.4375-3.6042 1.4375-6.1875v-29.625c0-0.5833-0.1458-1.5417-0.4375-2.875s-0.6667-2.875-1.125-4.625-0.9792-3.625-1.5625-5.625-1.1458-3.896-1.6875-5.688c-0.5417-1.791-1.0417-3.416-1.5-4.875-0.4583-1.458-0.8125-2.562-1.0625-3.312 0.8333-1.917 2.0417-3.667 3.625-5.25l30.625-30.625 9-36 21.75-21.625c3.5-3.5 7.708-5.25 12.625-5.25h27.625c0.583 0 0.875 0.208 0.875 0.625 0 3.583-0.167 7.104-0.5 10.562-0.333 3.459-0.667 6.98-1 10.563-0.5 5.75-0.979 11.417-1.437 17-0.459 5.583-0.896 11.25-1.313 17-1.5 18.583-3.042 37.063-4.625 55.437-1.583 18.376-3.208 36.855-4.875 55.438z" fill="#ccc"/>
      <path d="m187.75-210.75c1.917 1.25 3.396 2.896 4.438 4.937 1.041 2.042 1.562 4.188 1.562 6.438 0 0.75-0.042 1.333-0.125 1.75l-16.75 113.5c-0.417 2.6667-1.583 4.625-3.5 5.875s-4.125 1.875-6.625 1.875v1.25c0 1.6667-0.021 3.2917-0.062 4.875-0.042 1.5833-0.23 3.1042-0.563 4.5625s-0.854 2.8542-1.562 4.1875c-0.709 1.3333-1.73 2.625-3.063 3.875-0.667 0.6667-1.333 1.25-2 1.75s-1.25 1.125-1.75 1.875l-19 27.125c-0.75 1.0833-1.958 2.1458-3.625 3.1875s-3.562 2.0208-5.687 2.9375-4.417 1.7917-6.875 2.625c-2.459 0.8333-4.855 1.5417-7.188 2.125s-4.5 1.0417-6.5 1.375-3.667 0.5-5 0.5c-4.5833 0-9.1042-0.5208-13.562-1.5625s-8.9375-1.8125-13.438-2.3125c-0.5-0.0833-1-0.125-1.5-0.125h-1.5c-1 0-2 0.0208-3 0.0625s-2 0.0625-3 0.0625c-2.5 0-4.8333-0.4792-7-1.4375s-4.0625-2.25-5.6875-3.875-2.8958-3.5208-3.8125-5.6875-1.375-4.5-1.375-7h35.875l53.875-53.875v-98.875l18-26.75c1.333 0.167 3.042 0.458 5.125 0.875s4.188 0.875 6.313 1.375 4.166 1.042 6.125 1.625c1.958 0.583 3.562 1.167 4.812 1.75l0.125-1.25zm6 214.75c0 3.75-0.292 6.9375-0.875 9.5625s-1.5 5-2.75 7.125-2.854 4.1458-4.812 6.0625c-1.959 1.9167-4.271 4.0833-6.938 6.5-0.5 0.4167-1 0.8125-1.5 1.1875s-1.083 0.6458-1.75 0.8125l-44.25-44.25 17.875-29.875 18 2.875 17.75 17.75c2.917 2.9167 5.188 6.3125 6.813 10.188s2.437 7.8958 2.437 12.062zm-89.875-111.88-29.625 7.75-24.25-7.75c0-1.583 0.1042-3.125 0.3125-4.625s0.6458-2.958 1.3125-4.375h18.125c4.75 0 8.4583-2 11.125-6l32-47.875 6.375 3.25 2.625 5.75z" fill="#a6a6a6"/>
      <path d="m148.75-165.5c0 1.417-0.396 2.875-1.187 4.375-0.792 1.5-1.813 2.875-3.063 4.125s-2.625 2.271-4.125 3.062c-1.5 0.792-2.917 1.188-4.25 1.188-1.667 0-3.104-0.146-4.312-0.438-1.209-0.291-2.396-1.02-3.563-2.187l-12.75-12.75c-1.75-1.75-3.875-2.625-6.375-2.625-1.583 0-3 0.146-4.25 0.437-1.25 0.292-2.458 1.021-3.625 2.188l-15.375 15.375v-27l9-9h43.125c0.75 0 1.729 0.417 2.938 1.25 1.208 0.833 2.395 1.854 3.562 3.062 1.167 1.209 2.167 2.417 3 3.625 0.833 1.209 1.25 2.188 1.25 2.938zm9 111.62c0.083 3.9167 0.938 7.2083 2.563 9.875s3.77 5.3333 6.437 8h-9l-26.875 27h-54v-9h30.125c4.75 0 9.333-0.9167 13.75-2.75s8.292-4.4167 11.625-7.75zm-85.375-27c-1.5 0-2.875-0.2917-4.125-0.875s-2.3958-1.3125-3.4375-2.1875-2.0208-1.8333-2.9375-2.875-1.875-2.0625-2.875-3.0625c-0.9167-0.9167-1.8958-1.8333-2.9375-2.75s-2.0208-1.875-2.9375-2.875-1.6667-2.0833-2.25-3.25-0.875-2.458-0.875-3.875v-5.25h53.875l-23.75 23.875c-2.0833 2.0833-4.6667 3.125-7.75 3.125z" fill="#757575"/>
      
    </g>
    <g id="📄" class="choice" transform="matrix(.088348 0 0 .088348 130 132)">
      <path class="border" d="m219.12-233.62 46.5 46.5v241h-233.62v-287.5z"/>
      <path d="m201.25-168.62v-34.875l10.375-12.125 36 35.875-11.875 10.75z" fill="#e5e5e5"/>
      <path d="m211.62-179.75h36v215.62h-197.62v-251.5h161.62z" fill="#fff"/>
      <path d="m67.875-161.75h161.75v9h-161.75zm0 89.875v-9h161.75v9zm0 53.875v-9h152.75v9zm152.75-89.875v9h-152.75v-9zm-9-26.875v9h-143.75v-9zm0 80.875v8.875h-143.75v-8.875zm-62.875-134.88v9h-80.875v-9zm-80.875 197.75v-9h36v9z" fill="#a6a6a6"/>
    </g>
    <g id="✂" class="choice" transform="matrix(.088348 0 0 .088348 9 132)">
      <path class="border" d="m292.5 2.125v40.25c0 1.5833-0.292 3.0833-0.875 4.5s-1.396 2.6458-2.437 3.6875c-1.042 1.0417-2.271 1.8542-3.688 2.4375s-2.917 0.875-4.5 0.875c-1.5 0-2.979-0.2917-4.437-0.875-1.459-0.5833-2.73-1.4167-3.813-2.5l-106-106-106 106c-1.0833 1.0833-2.3542 1.9167-3.8125 2.5s-2.9375 0.875-4.4375 0.875c-1.5833 0-3.0833-0.2917-4.5-0.875s-2.6458-1.3958-3.6875-2.4375-1.8542-2.2708-2.4375-3.6875-0.875-2.9167-0.875-4.5v-40.25c0-6 1.125-11.729 3.375-17.188 2.25-5.4583 5.5-10.312 9.75-14.562l69.25-69.25-11.375-11.375c-5.5 1.583-11.292 2.375-17.375 2.375-6.75 0-13.479-1.333-20.188-4s-12.854-6.25-18.438-10.75-10.396-9.729-14.438-15.688c-4.0417-5.958-6.7708-12.27-8.1875-18.937-0.5-2.167-0.8542-4.396-1.0625-6.688-0.2083-2.291-0.3125-4.562-0.3125-6.812 0-8.667 1.6458-16.813 4.9375-24.438 3.2917-7.624 7.7917-14.291 13.5-20 5.7083-5.708 12.375-10.208 20-13.5 7.625-3.291 15.771-4.937 24.438-4.937 8.667 0 16.813 1.646 24.438 4.937 7.625 3.292 14.291 7.792 20 13.5 5.708 5.709 10.208 12.396 13.5 20.063 3.291 7.667 4.937 15.833 4.937 24.5 0 5.833-0.75 11.5-2.25 17l11.25 11.375 11.375-11.375c-1.583-5.5-2.375-11.25-2.375-17.25 0-8.667 1.646-16.813 4.938-24.438 3.291-7.625 7.791-14.27 13.5-19.937 5.708-5.667 12.375-10.146 20-13.438 7.625-3.291 15.77-4.937 24.437-4.937s16.812 1.646 24.438 4.937c7.625 3.292 14.291 7.792 20 13.5 5.708 5.709 10.208 12.376 13.5 20 3.291 7.625 4.937 15.771 4.937 24.438 0 2.25-0.104 4.521-0.312 6.812-0.209 2.292-0.563 4.521-1.063 6.688-1.417 6.667-4.146 13-8.187 19-4.042 6-8.855 11.25-14.438 15.75s-11.729 8.062-18.437 10.687c-6.709 2.625-13.438 3.938-20.188 3.938-6.083 0-11.875-0.792-17.375-2.375l-11.375 11.375 69.25 69.25c4.25 4.25 7.5 9.1042 9.75 14.562 2.25 5.4583 3.375 11.188 3.375 17.188z"/>
      <path d="m199.38-132.62 3.375 15.75-36 36-7.625 1.5-1.375 7.5-98.75 98.75v-24.75c0-7.4167 2.625-13.75 7.875-19l72.875-73h9v-9l36-35.875z" fill="#ccc"/>
      <path d="m172.62-86.75-14.875 14.875-18-18 14.875-14.75z" fill="#757575"/>
      <path d="m148.75-134.75 117.88 117.88c2.583 2.5833 4.563 5.4792 5.938 8.6875 1.375 3.2083 2.062 6.6458 2.062 10.312v24.75l-143.75-143.75 2.5-16.875z" fill="#e5e5e5"/>
      <path d="m166.75-89.875c-2.5 0-4.625-0.875-6.375-2.625s-2.625-3.875-2.625-6.375 0.875-4.625 2.625-6.375 3.875-2.625 6.375-2.625 4.625 0.875 6.375 2.625 2.625 3.875 2.625 6.375-0.875 4.625-2.625 6.375-3.875 2.625-6.375 2.625z" fill="#a6a6a6"/>
      <path d="m238.62-215.62c6.167 0 11.979 1.188 17.438 3.562 5.458 2.376 10.208 5.584 14.25 9.625 4.041 4.042 7.25 8.792 9.625 14.25 2.375 5.459 3.562 11.271 3.562 17.438 0 6.25-1.167 12.083-3.5 17.5s-5.542 10.167-9.625 14.25-8.833 7.292-14.25 9.625-11.25 3.5-17.5 3.5c-3.75 0-7.458-0.438-11.125-1.313s-7.125-2.229-10.375-4.062l-14.375 14.375-18-17.875 14.375-14.5c-3.583-6.75-5.375-13.917-5.375-21.5 0-6.167 1.167-11.979 3.5-17.438 2.333-5.458 5.542-10.208 9.625-14.25 4.083-4.041 8.854-7.249 14.313-9.625 5.458-2.374 11.27-3.562 17.437-3.562zm-89.875 80.875-17.875 17.875-14.5-14.375c-3.25 1.833-6.708 3.187-10.375 4.062s-7.375 1.313-11.125 1.313c-6.1667 0-11.979-1.167-17.438-3.5s-10.229-5.542-14.312-9.625-7.2917-8.854-9.625-14.313c-2.3333-5.458-3.5-11.27-3.5-17.437s1.1667-11.979 3.5-17.438c2.3333-5.458 5.5417-10.208 9.625-14.25 4.0833-4.041 8.8542-7.249 14.312-9.625 5.4583-2.374 11.271-3.562 17.438-3.562 6.167 0 11.979 1.188 17.438 3.562 5.458 2.376 10.208 5.584 14.25 9.625 4.041 4.042 7.25 8.792 9.625 14.25 2.375 5.459 3.562 11.271 3.562 17.438 0 3.75-0.437 7.458-1.312 11.125s-2.23 7.125-4.063 10.375zm-80.875-36c0 3.75 0.7083 7.25 2.125 10.5s3.3542 6.104 5.8125 8.562c2.4583 2.459 5.3125 4.396 8.5625 5.813s6.75 2.125 10.5 2.125 7.25-0.708 10.5-2.125 6.104-3.354 8.563-5.813c2.458-2.458 4.395-5.312 5.812-8.562s2.125-6.75 2.125-10.5-0.708-7.25-2.125-10.5-3.354-6.083-5.812-8.5c-2.459-2.417-5.313-4.333-8.563-5.75s-6.75-2.125-10.5-2.125-7.25 0.708-10.5 2.125-6.1042 3.333-8.5625 5.75-4.3958 5.25-5.8125 8.5-2.125 6.75-2.125 10.5zm170.75 27c3.75 0 7.25-0.708 10.5-2.125s6.104-3.354 8.563-5.813c2.458-2.458 4.395-5.312 5.812-8.562s2.125-6.75 2.125-10.5-0.708-7.25-2.125-10.5-3.354-6.083-5.812-8.5c-2.459-2.417-5.313-4.333-8.563-5.75s-6.75-2.125-10.5-2.125-7.25 0.708-10.5 2.125-6.104 3.333-8.562 5.75c-2.459 2.417-4.396 5.25-5.813 8.5s-2.125 6.75-2.125 10.5 0.708 7.25 2.125 10.5 3.354 6.104 5.813 8.562c2.458 2.459 5.312 4.396 8.562 5.813s6.75 2.125 10.5 2.125z" fill="#f03a17"/>
    </g>
   
  </g>
</svg>